<?xml version="1.0" standalone="no"?>
<!DOCTYPE svg PUBLIC "-//W3C//DTD SVG 20010904//EN"
 "http://www.w3.org/TR/2001/REC-SVG-20010904/DTD/svg10.dtd">
<svg version="1.0" xmlns="http://www.w3.org/2000/svg"
 width="1024.000000pt" height="1024.000000pt" viewBox="0 0 1024.000000 1024.000000"
 preserveAspectRatio="xMidYMid meet">

<g transform="translate(0.000000,1024.000000) scale(0.100000,-0.100000)"
fill="#6A994E" stroke="none">
<path d="M4634 8390 c-157 -23 -286 -143 -329 -305 -70 -271 88 -533 597 -988
173 -155 208 -175 262 -153 19 8 107 81 197 163 439 401 599 630 599 858 0
218 -142 392 -347 425 -139 23 -277 -33 -408 -165 l-81 -81 -74 76 c-132 135
-269 191 -416 170z m154 -220 c60 -27 142 -108 212 -211 63 -92 82 -109 122
-109 36 0 61 23 124 112 134 191 262 262 382 213 82 -35 122 -100 122 -202 0
-121 -74 -246 -283 -474 -119 -131 -320 -319 -340 -319 -20 0 -251 215 -359
333 -197 219 -260 324 -266 448 -3 61 0 83 16 115 53 103 164 142 270 94z"/>
<path d="M3433 7101 c-56 -7 -88 -29 -98 -68 -9 -36 12 -210 41 -342 115 -517
473 -935 929 -1084 144 -48 326 -76 583 -93 108 -6 113 -8 137 -36 l25 -30 0
-336 0 -337 -28 50 c-118 214 -294 391 -490 493 -186 96 -330 127 -559 119
-167 -5 -272 -28 -426 -92 -92 -39 -117 -64 -117 -119 0 -13 25 -74 55 -134
178 -356 488 -595 847 -652 123 -20 319 -8 458 28 63 16 122 31 130 33 19 5
84 -117 105 -197 8 -32 15 -90 15 -129 l0 -71 -98 -11 c-163 -20 -353 -91
-463 -175 -24 -19 -49 -37 -56 -41 -7 -4 -44 8 -85 29 -101 51 -236 98 -359
125 -146 33 -407 33 -553 1 -202 -45 -410 -125 -744 -287 -206 -100 -252 -134
-252 -184 0 -61 44 -111 98 -111 10 0 110 45 221 99 517 254 771 326 1056 300
236 -22 410 -93 804 -326 346 -205 469 -242 941 -283 279 -24 430 -45 488 -66
124 -46 148 -170 49 -261 -62 -57 -130 -79 -267 -87 -63 -4 -218 -14 -345 -22
-126 -8 -264 -14 -306 -14 -105 0 -274 30 -529 95 -360 91 -487 106 -528 62
-30 -32 -37 -78 -18 -115 22 -43 34 -47 164 -66 62 -9 209 -41 325 -71 348
-89 416 -99 612 -98 231 1 715 31 795 49 202 45 347 191 358 358 l4 61 104 69
c207 137 371 292 594 561 177 214 277 322 324 350 110 63 208 27 223 -83 8
-60 -11 -102 -117 -261 -242 -361 -650 -875 -831 -1045 -252 -237 -900 -567
-1212 -616 -98 -16 -283 -7 -392 18 -227 54 -349 98 -830 304 -635 272 -828
318 -1076 254 -138 -36 -305 -103 -329 -133 -48 -61 3 -163 81 -163 11 0 77
22 147 49 160 62 227 75 345 69 140 -8 305 -65 732 -253 648 -285 938 -367
1249 -352 204 9 378 65 703 222 481 234 699 398 994 755 268 324 633 829 706
978 38 79 44 194 13 276 -29 76 -95 147 -169 183 -76 37 -190 38 -270 3 -51
-22 -54 -23 -80 -6 -63 41 -96 50 -181 51 -77 0 -92 -3 -155 -34 -43 -21 -94
-58 -133 -96 l-63 -62 -52 14 c-95 26 -219 -1 -319 -70 -26 -17 -107 -80 -181
-139 l-135 -107 -70 19 c-52 15 -89 34 -144 75 -140 107 -331 184 -501 201
-48 5 -71 12 -75 22 -3 9 -1 61 4 118 9 92 15 113 63 215 30 63 58 124 64 136
6 12 23 37 38 55 24 29 30 32 48 21 11 -7 53 -20 93 -28 40 -9 114 -25 163
-36 117 -25 335 -27 454 -4 398 77 723 321 901 676 76 152 68 188 -56 245
-320 148 -644 171 -954 68 -336 -112 -588 -343 -758 -695 -26 -54 -50 -98 -54
-98 -5 -1 -8 142 -8 317 l0 318 28 27 c32 30 79 47 133 47 19 0 78 7 130 16
315 54 579 219 759 476 138 197 249 529 267 805 l6 92 -31 30 -30 31 -145 0
c-267 0 -470 -61 -696 -210 -224 -147 -397 -373 -504 -659 l-24 -63 -32 93
c-79 228 -179 389 -340 549 -271 270 -600 407 -1051 440 -145 11 -206 11 -287
1z m452 -228 c435 -67 792 -317 974 -681 35 -70 96 -244 107 -307 l7 -40 -114
110 c-183 176 -392 345 -594 478 -91 61 -122 67 -162 33 -17 -14 -34 -38 -37
-53 -13 -48 12 -81 107 -145 205 -138 418 -312 562 -458 l80 -81 -55 6 c-287
33 -400 59 -535 126 -274 136 -504 420 -615 759 -33 102 -64 256 -54 272 8 13
192 3 329 -19z m2470 -170 c-29 -218 -100 -422 -203 -583 -46 -72 -151 -181
-229 -236 -85 -61 -214 -120 -318 -144 -47 -12 -91 -20 -96 -18 -16 5 141 187
303 355 136 139 148 154 148 188 0 27 -8 44 -29 66 -34 34 -64 37 -108 9 -49
-30 -326 -313 -433 -443 -52 -63 -96 -114 -98 -112 -5 5 37 162 64 237 129
358 428 621 809 712 33 8 91 15 128 15 l68 1 -6 -47z m315 -1273 c129 -26 230
-58 230 -72 0 -22 -78 -143 -134 -207 -144 -166 -347 -291 -563 -348 -77 -20
-124 -25 -223 -27 -119 -1 -270 17 -270 33 0 15 294 138 569 238 33 12 46 23
58 50 20 49 3 99 -42 120 -31 15 -37 14 -146 -22 -142 -47 -329 -121 -456
-180 -53 -25 -98 -43 -101 -40 -7 7 44 81 101 148 126 147 373 283 574 317 97
16 299 11 403 -10z m-2465 -195 c169 -35 331 -122 450 -242 61 -60 122 -140
114 -148 -3 -2 -50 18 -104 45 -120 60 -330 138 -390 147 -40 5 -47 3 -74 -25
-23 -22 -31 -40 -31 -65 0 -57 29 -82 138 -118 141 -47 368 -166 350 -184 -2
-3 -40 -10 -84 -16 -308 -43 -643 128 -844 433 -33 51 -59 99 -58 107 3 16 80
45 173 66 81 18 274 18 360 0z m2903 -1153 c9 -6 -10 -34 -64 -98 -43 -49
-120 -141 -173 -204 -130 -155 -194 -222 -274 -292 l-68 -59 -41 62 -40 62
224 222 c122 121 244 235 271 253 79 55 134 73 165 54z m-1750 -187 c126 -26
243 -80 401 -184 51 -33 103 -61 115 -61 77 0 276 -96 364 -176 54 -48 122
-135 122 -155 0 -4 -20 -19 -45 -34 l-46 -26 -35 30 c-41 36 -71 53 -139 75
-75 24 -287 54 -510 71 -439 34 -596 82 -880 266 -112 72 -112 67 12 125 176
83 441 112 641 69z m1088 -77 c-156 -147 -151 -144 -182 -123 -14 9 -24 18
-22 20 1 2 46 38 98 80 84 68 176 125 205 125 5 0 -40 -46 -99 -102z"/>
</g>
</svg>
