<?xml version="1.0" standalone="no"?>
<!DOCTYPE svg PUBLIC "-//W3C//DTD SVG 20010904//EN"
 "http://www.w3.org/TR/2001/REC-SVG-20010904/DTD/svg10.dtd">
<svg version="1.0" xmlns="http://www.w3.org/2000/svg"
 width="1024.000000pt" height="1024.000000pt" viewBox="0 0 1024.000000 1024.000000"
 preserveAspectRatio="xMidYMid meet">

<g transform="translate(0.000000,1024.000000) scale(0.100000,-0.100000)"
fill="#6A994E" stroke="none">
<path d="M4788 8456 c-56 -20 -85 -42 -118 -88 -87 -120 -61 -264 80 -442 76
-96 237 -256 314 -313 l58 -43 32 22 c57 40 271 262 335 348 92 122 115 177
115 272 0 104 -36 178 -108 223 -44 26 -58 30 -125 30 -93 0 -153 -27 -216
-97 l-42 -47 -44 45 c-81 82 -200 121 -281 90z m643 -122 c57 -29 76 -130 40
-209 -25 -55 -123 -177 -244 -302 l-102 -105 -145 144 c-260 257 -302 358
-190 452 37 31 103 35 151 10 70 -36 149 -131 149 -179 0 -29 23 -11 102 81
42 49 92 97 110 106 40 22 89 23 129 2z"/>
<path d="M3950 7647 c-22 -12 -25 -19 -23 -68 2 -68 41 -222 82 -324 97 -242
282 -438 498 -529 121 -51 337 -96 460 -96 41 0 57 -5 73 -22 19 -21 20 -34
20 -272 0 -137 -2 -247 -4 -245 -3 3 -23 41 -45 84 -74 148 -188 264 -326 330
-192 93 -441 92 -635 -3 -71 -35 -73 -51 -21 -148 117 -216 299 -363 507 -410
98 -21 256 -15 363 16 85 24 79 28 131 -76 29 -60 30 -65 30 -208 0 -80 -4
-146 -9 -146 -4 0 -46 -7 -93 -15 -161 -28 -313 -100 -411 -196 l-59 -57 -57
19 c-152 53 -361 73 -508 49 -150 -25 -375 -106 -620 -226 -152 -73 -189 -102
-181 -141 2 -9 15 -24 29 -32 25 -14 33 -12 170 56 162 80 379 168 514 209 81
25 105 28 240 28 125 0 164 -4 235 -23 160 -43 263 -93 525 -252 132 -80 235
-121 340 -138 39 -6 175 -17 304 -26 250 -17 314 -26 360 -49 80 -42 107 -133
54 -190 -54 -58 -140 -79 -463 -112 -222 -22 -370 -15 -560 25 -145 32 -375
71 -417 71 -28 0 -57 -42 -48 -70 9 -30 29 -37 169 -59 70 -12 195 -35 279
-53 142 -30 166 -32 352 -32 199 0 406 18 558 49 126 26 213 80 254 159 17 32
23 123 11 166 -7 23 1 31 89 95 120 88 373 332 533 515 150 172 195 199 275
166 59 -25 82 -103 49 -169 -27 -53 -316 -454 -431 -598 -59 -74 -168 -195
-243 -270 -167 -169 -290 -252 -598 -407 -290 -147 -338 -163 -479 -170 -183
-8 -315 31 -752 218 -152 64 -341 139 -421 166 -139 46 -150 48 -260 48 -110
1 -121 -1 -242 -43 -137 -47 -164 -65 -154 -106 13 -50 41 -51 177 -4 112 39
133 43 214 43 136 -2 297 -56 714 -239 309 -136 482 -186 667 -192 185 -7 242
9 513 142 386 190 509 272 702 464 158 159 288 319 507 625 191 268 212 307
212 390 0 156 -152 264 -300 213 -30 -11 -40 -9 -79 11 -53 26 -152 30 -207 7
-19 -8 -61 -39 -93 -70 -56 -53 -59 -55 -90 -44 -86 30 -210 -15 -350 -128
-147 -119 -125 -108 -185 -90 -29 10 -63 17 -75 17 -14 0 -50 25 -94 65 -86
80 -216 147 -329 170 -42 8 -89 15 -103 15 l-25 0 0 191 0 191 35 67 c19 36
45 79 58 94 l22 28 45 -16 c199 -71 447 -69 626 6 153 64 304 201 402 366 68
113 67 137 -3 175 -56 31 -173 71 -253 87 -78 16 -286 13 -360 -4 -180 -42
-339 -153 -444 -308 -48 -70 -108 -201 -108 -234 0 -13 -4 -23 -10 -23 -6 0
-10 72 -10 198 0 171 3 202 19 238 18 40 20 41 80 48 214 24 406 123 519 267
120 153 201 388 202 585 0 95 -5 99 -124 90 -240 -17 -466 -125 -591 -284 -53
-67 -116 -184 -140 -262 -9 -30 -19 -62 -22 -70 -2 -8 -15 17 -27 55 -105 329
-390 566 -755 630 -106 19 -346 20 -381 2z m340 -102 c381 -58 657 -314 715
-664 l7 -45 -49 60 c-114 137 -371 338 -461 361 -29 7 -62 -21 -62 -53 0 -25
5 -29 120 -102 139 -89 325 -263 373 -348 10 -18 -22 -18 -128 0 -183 32 -291
73 -398 150 -165 117 -283 296 -342 517 -38 143 -40 139 53 139 42 0 120 -7
172 -15z m1593 -107 c-38 -306 -168 -526 -368 -623 -72 -34 -186 -68 -211 -63
-21 5 97 156 205 263 70 69 91 96 91 117 0 33 -31 53 -68 43 -14 -3 -64 -45
-111 -93 -83 -84 -211 -243 -211 -263 0 -5 -4 -9 -9 -9 -11 0 3 74 30 165 64
213 197 362 389 438 69 27 185 55 236 56 29 1 30 -1 27 -31z m257 -837 c41
-11 92 -27 112 -35 l38 -16 -38 -62 c-52 -87 -192 -226 -269 -266 -108 -57
-169 -73 -290 -79 -143 -7 -320 20 -287 44 55 42 232 116 362 153 86 24 109
43 97 80 -9 29 -42 43 -84 35 -100 -19 -236 -71 -425 -163 -20 -10 76 116 121
159 98 95 177 136 313 165 86 18 252 11 350 -15z m-1570 -165 c98 -34 200
-105 267 -185 29 -36 53 -68 53 -71 0 -3 -39 13 -86 36 -126 62 -248 100 -278
86 -27 -12 -36 -38 -25 -69 5 -15 30 -28 91 -48 46 -15 126 -47 178 -72 107
-52 107 -54 -20 -74 -122 -19 -270 14 -376 83 -69 45 -173 153 -217 225 -20
33 -37 63 -37 66 0 7 84 35 141 47 78 16 226 5 309 -24z m2092 -943 c12 -7
-194 -236 -346 -385 -77 -76 -143 -138 -146 -138 -3 0 -17 20 -31 44 l-26 43
60 48 c33 27 129 124 214 217 159 172 186 192 243 180 14 -2 28 -7 32 -9z
m-1342 -99 c91 -27 166 -71 237 -138 78 -73 100 -86 142 -86 46 0 138 -38 213
-87 63 -41 111 -90 151 -155 l16 -26 -54 -41 c-72 -55 -76 -56 -118 -31 -71
42 -143 54 -457 75 -352 23 -387 33 -632 188 -75 48 -153 94 -172 104 -20 9
-36 20 -36 23 0 13 57 60 115 95 62 37 180 79 269 95 73 13 261 4 326 -16z
m960 -22 c0 -9 -194 -203 -225 -226 -17 -13 -23 -11 -57 12 -21 15 -38 30 -38
33 0 7 110 95 170 136 64 43 150 69 150 45z"/>
<path d="M3172 3148 c-8 -8 -12 -57 -12 -155 l0 -143 -37 24 c-58 37 -109 49
-182 44 -110 -8 -192 -61 -238 -156 -26 -53 -28 -65 -28 -182 0 -114 2 -130
26 -180 51 -109 115 -151 236 -158 69 -4 88 -1 127 18 25 12 57 35 70 51 31
36 36 36 36 0 0 -16 7 -37 16 -45 18 -18 76 -21 105 -6 18 10 19 26 19 443 0
324 -3 436 -12 445 -16 16 -110 16 -126 0z m-92 -381 c51 -34 72 -79 78 -161
9 -154 -51 -238 -170 -238 -105 1 -161 75 -161 212 0 91 26 149 82 187 47 32
125 32 171 0z"/>
<path d="M5323 3148 c-30 -15 -46 -58 -34 -91 13 -33 39 -47 89 -47 58 0 90
44 71 98 -16 46 -75 65 -126 40z"/>
<path d="M1260 3131 c-6 -13 -10 -168 -10 -435 0 -364 2 -417 16 -430 13 -14
52 -16 270 -16 157 0 263 4 275 10 14 8 19 21 19 53 0 24 -5 48 -12 55 -9 9
-69 12 -210 12 l-198 0 0 130 0 130 170 0 c157 0 170 1 180 19 15 29 12 67 -6
85 -13 13 -44 16 -180 16 l-164 0 0 130 0 130 194 0 c164 0 197 3 210 16 19
18 21 85 4 102 -9 9 -85 12 -280 12 -254 0 -268 -1 -278 -19z"/>
<path d="M6112 3138 c-17 -17 -15 -84 4 -102 12 -13 40 -16 135 -16 l119 0 0
-373 c0 -277 3 -376 12 -385 16 -16 110 -16 126 0 9 9 12 108 12 385 l0 373
119 0 c95 0 123 3 135 16 18 18 21 66 6 95 -10 18 -25 19 -333 19 -238 0 -326
-3 -335 -12z"/>
<path d="M2219 2906 c-45 -16 -99 -53 -100 -69 0 -7 -5 2 -11 18 -6 17 -15 36
-21 43 -12 15 -89 16 -105 0 -9 -9 -12 -95 -12 -324 0 -349 -6 -324 75 -324
74 0 75 4 75 228 0 216 6 245 62 285 40 30 115 33 156 7 55 -34 62 -65 62
-285 0 -116 4 -204 10 -216 9 -15 22 -19 63 -19 29 0 58 5 65 12 17 17 17 455
0 512 -18 58 -82 120 -140 134 -60 15 -133 15 -179 -2z"/>
<path d="M3622 2901 c-100 -34 -171 -128 -193 -255 -28 -162 36 -310 163 -378
37 -20 58 -23 153 -23 98 0 116 3 167 27 31 14 64 38 74 53 16 25 16 30 3 54
-20 36 -57 38 -120 6 -37 -20 -68 -27 -108 -28 -85 0 -135 31 -166 106 -29 70
-39 67 200 67 202 0 215 1 225 19 16 31 12 103 -11 176 -49 159 -216 235 -387
176z m197 -118 c33 -25 58 -68 66 -115 l7 -38 -156 0 c-150 0 -156 1 -156 20
0 27 26 89 48 114 43 48 138 58 191 19z"/>
<path d="M4410 2908 c-19 -5 -51 -22 -71 -38 l-36 -29 -14 32 c-12 29 -19 32
-61 35 -78 5 -78 5 -78 -331 0 -180 4 -296 10 -308 9 -15 22 -19 65 -19 85 0
85 -1 85 231 0 178 2 204 20 238 32 63 104 86 176 56 57 -24 64 -54 64 -289 0
-235 0 -236 79 -236 27 0 53 6 59 13 6 7 12 94 14 217 3 184 5 209 23 240 40
68 132 88 194 42 40 -29 49 -86 50 -297 1 -134 5 -195 13 -203 17 -17 113 -15
128 3 9 11 11 75 8 247 -3 232 -3 233 -31 291 -41 83 -93 112 -202 112 -90 0
-137 -18 -189 -70 l-31 -31 -40 42 c-57 59 -142 78 -235 52z"/>
<path d="M5795 2907 c-94 -31 -158 -88 -197 -172 -20 -43 -23 -66 -23 -160 0
-91 4 -118 21 -156 30 -63 79 -116 138 -147 46 -24 61 -27 156 -27 91 0 111 3
150 24 117 61 145 140 60 170 -28 9 -35 7 -76 -24 -130 -99 -263 -51 -296 107
-21 102 18 210 92 250 55 30 138 21 189 -20 48 -38 83 -41 116 -7 30 29 30 31
6 72 -30 49 -134 95 -224 99 -42 2 -88 -2 -112 -9z"/>
<path d="M7400 2911 c-152 -50 -227 -174 -218 -360 3 -70 10 -99 32 -144 33
-69 101 -130 168 -153 73 -24 217 -16 278 15 87 45 112 88 72 124 -26 24 -52
21 -111 -10 -40 -20 -66 -26 -112 -26 -94 1 -150 48 -174 146 l-7 27 216 0
c253 0 243 -5 233 111 -10 117 -63 205 -152 252 -44 22 -179 33 -225 18z m168
-128 c40 -30 61 -64 68 -110 l7 -43 -157 0 c-175 0 -169 -3 -142 73 17 47 42
75 81 94 39 17 110 11 143 -14z"/>
<path d="M8074 2902 c-62 -22 -102 -53 -142 -112 -44 -66 -56 -114 -57 -220 0
-77 5 -104 23 -143 32 -72 74 -119 134 -153 50 -27 60 -29 163 -29 101 0 115
2 168 28 71 35 94 65 76 99 -24 46 -56 50 -123 12 -57 -32 -143 -36 -193 -11
-42 22 -83 76 -90 121 l-6 36 209 0 c115 0 216 5 224 10 11 7 15 28 14 83 -2
138 -76 249 -188 282 -66 20 -149 18 -212 -3z m195 -119 c33 -25 58 -68 66
-115 l7 -38 -160 0 -160 0 9 38 c5 20 9 40 9 44 0 16 57 72 85 84 39 18 110
12 144 -13z"/>
<path d="M8706 2906 c-89 -33 -129 -87 -128 -171 1 -110 44 -154 202 -207 96
-32 150 -69 150 -103 0 -9 -14 -30 -31 -47 -29 -30 -32 -30 -105 -26 -64 4
-81 10 -120 38 -39 28 -49 31 -70 21 -38 -17 -51 -54 -30 -86 37 -56 119 -87
231 -87 92 0 147 16 191 54 48 43 64 77 64 143 0 113 -40 153 -204 206 -99 32
-146 62 -146 94 0 32 21 54 60 65 51 14 102 5 161 -28 51 -28 70 -26 95 13 25
38 7 67 -62 101 -70 34 -194 44 -258 20z"/>
<path d="M5318 2899 c-17 -9 -18 -35 -18 -317 0 -226 3 -311 12 -320 7 -7 35
-12 63 -12 28 0 56 5 63 12 9 9 12 93 12 314 0 341 2 334 -73 334 -23 0 -50
-5 -59 -11z"/>
<path d="M6786 2894 c-14 -13 -16 -56 -16 -318 0 -221 3 -305 12 -314 13 -13
106 -16 124 -4 8 4 13 68 17 187 5 201 14 244 62 292 27 27 41 33 74 33 52 0
81 27 81 74 0 46 -22 66 -71 66 -48 0 -88 -19 -122 -59 -28 -33 -37 -31 -37
10 0 18 -7 32 -19 39 -29 15 -87 12 -105 -6z"/>
</g>
</svg>
